<svg width="35" height="37" viewBox="0 0 35 37" fill="none" xmlns="http://www.w3.org/2000/svg">
<g clip-path="url(#clip0_464_22756)">
<path d="M30.485 35.2342L25.8957 25.5118C25.8504 25.4212 25.7881 25.3419 25.7088 25.2739C25.6294 25.2059 25.5445 25.1492 25.4538 25.1039L23.1762 24.0841L27.1195 17.4212L27.1535 17.3872C27.5388 16.6166 27.8334 15.8234 28.0374 15.0076C28.2413 14.1917 28.3433 13.3419 28.3433 12.458C28.3433 11.0076 28.0657 9.61948 27.5105 8.2937C26.9552 6.96792 26.1564 5.79512 25.1139 4.77529C24.0714 3.7328 22.8816 2.94526 21.5445 2.41268C20.2074 1.8801 18.8023 1.62514 17.3292 1.64781C15.9241 1.67047 14.5756 1.95376 13.2838 2.49767C11.9921 3.04158 10.8362 3.82344 9.81642 4.84328C8.81925 5.86311 8.04871 7.02458 7.5048 8.3277C6.96089 9.63081 6.67761 10.9849 6.65494 12.39C6.65494 13.2739 6.75693 14.1407 6.96089 14.9906C7.16486 15.8404 7.45948 16.6393 7.84475 17.3872L7.87874 17.4552L11.8221 24.0841L9.54446 25.1039C9.45381 25.1492 9.36883 25.2059 9.28951 25.2739C9.21019 25.3419 9.14786 25.4212 9.10254 25.5118L4.5133 35.2342C4.44531 35.3929 4.42832 35.5628 4.46231 35.7441C4.4963 35.9254 4.56996 36.0727 4.68327 36.1861C4.81925 36.322 4.97222 36.407 5.1422 36.441C5.31217 36.475 5.47647 36.458 5.63511 36.39L11.4142 33.8064L17.1592 36.39C17.2725 36.4353 17.3858 36.458 17.4991 36.458C17.6125 36.458 17.7258 36.4353 17.8391 36.39L23.5841 33.8064L29.3632 36.39C29.4085 36.4127 29.4595 36.4297 29.5161 36.441C29.5728 36.4523 29.6351 36.458 29.7031 36.458C29.8164 36.458 29.9241 36.4353 30.0261 36.39C30.128 36.3447 30.2243 36.2767 30.315 36.1861C30.4283 36.0727 30.502 35.9254 30.536 35.7441C30.57 35.5628 30.553 35.3929 30.485 35.2342ZM9.37449 16.6053C9.03455 15.9481 8.78526 15.2682 8.62662 14.5657C8.46798 13.8631 8.38866 13.1492 8.38866 12.424C8.38866 11.1776 8.62662 10.0104 9.10254 8.9226C9.57846 7.83478 10.2243 6.88294 11.0402 6.06707C11.8561 5.25121 12.8079 4.59398 13.8957 4.0954C14.9836 3.61948 16.1394 3.37019 17.3632 3.34753C18.587 3.34753 19.7654 3.56849 20.8986 4.01041C22.0317 4.45234 23.0289 5.11523 23.8901 5.99908C24.7739 6.86027 25.4481 7.84611 25.9127 8.95659C26.3773 10.0671 26.6096 11.2342 26.6096 12.458C26.6096 13.1832 26.5246 13.8914 26.3547 14.5827C26.1847 15.2739 25.9411 15.9481 25.6238 16.6053L18.247 28.9793C18.1337 29.1606 17.9977 29.2739 17.8391 29.3192C17.6804 29.3645 17.5671 29.3872 17.4991 29.3872C17.4311 29.3872 17.3178 29.3645 17.1592 29.3192C17.0006 29.2739 16.8646 29.1606 16.7513 28.9793L9.37449 16.6053ZM23.9581 32.1067C23.8447 32.0387 23.7258 32.0047 23.6011 32.0047C23.4765 32.0047 23.3575 32.0387 23.2442 32.1067L17.4991 34.6563L11.7541 32.1067C11.6408 32.0387 11.5218 32.0047 11.3972 32.0047C11.2725 32.0047 11.1535 32.0387 11.0402 32.1067L7.06288 33.8744L10.5303 26.5317L12.7399 25.5798L15.2895 29.8631C15.5161 30.2484 15.8277 30.5543 16.2243 30.781C16.621 31.0076 17.0459 31.1209 17.4991 31.1209C17.9524 31.1209 18.3773 31.0076 18.7739 30.781C19.1705 30.5543 19.4821 30.2484 19.7088 29.8631L22.2583 25.5798L24.468 26.5317L27.9354 33.8744L23.9581 32.1067ZM20.2697 9.70447C20.2697 9.70447 20.0799 9.51183 19.7003 9.12656C19.3207 8.74129 18.587 8.54866 17.4991 8.54866C16.4113 8.54866 15.4878 8.93393 14.7286 9.70447C13.9694 10.475 13.5898 11.3929 13.5898 12.458C13.5898 13.5458 13.9694 14.475 14.7286 15.2455C15.4878 16.0161 16.4113 16.4014 17.4991 16.4014C18.587 16.4014 19.5105 16.0161 20.2697 15.2455C21.0289 14.475 21.4085 13.5458 21.4085 12.458C21.4085 11.3929 21.0289 10.475 20.2697 9.70447ZM19.0629 14.0217C19.0629 14.0217 18.9552 14.1294 18.7399 14.3447C18.5246 14.56 18.111 14.6676 17.4991 14.6676C16.8872 14.6676 16.366 14.4523 15.9354 14.0217C15.5048 13.5912 15.2895 13.0699 15.2895 12.458C15.2895 11.8688 15.5048 11.3589 15.9354 10.9283C16.366 10.4977 16.8872 10.2824 17.4991 10.2824C18.111 10.2824 18.6323 10.4977 19.0629 10.9283C19.4935 11.3589 19.7088 11.8688 19.7088 12.458C19.7088 13.0699 19.4935 13.5912 19.0629 14.0217Z" fill="#FFC301"/>
</g>
<defs>
<clipPath id="clip0_464_22756">
<rect width="35" height="36" fill="white" transform="matrix(1 0 0 -1 0 36.5601)"/>
</clipPath>
</defs>
</svg>
